<svg width="36" height="36" viewBox="0 0 36 36" fill="none" xmlns="http://www.w3.org/2000/svg">
<circle cx="18" cy="18" r="18" fill="#0D6032"/>
<path d="M24.6971 14.1485C24.6156 13.8344 24.4522 13.5476 24.2235 13.3173C23.9948 13.087 23.7091 12.9215 23.3956 12.8378C21.4946 12.6136 19.581 12.5126 17.667 12.5354C15.7529 12.5126 13.8394 12.6136 11.9384 12.8378C11.6248 12.9215 11.3391 13.087 11.1104 13.3173C10.8818 13.5476 10.7183 13.8344 10.6368 14.1485C10.4286 15.3162 10.3273 16.5005 10.3344 17.6865C10.327 18.8787 10.4282 20.0691 10.6368 21.2429C10.7226 21.5519 10.8879 21.8331 11.1163 22.0582C11.3447 22.2834 11.6281 22.4447 11.9384 22.5261C13.8394 22.7503 15.7529 22.8513 17.667 22.8285C19.581 22.8513 21.4946 22.7503 23.3956 22.5261C23.7058 22.4447 23.9893 22.2834 24.2177 22.0582C24.4461 21.8331 24.6114 21.5519 24.6971 21.2429C24.9057 20.0691 25.007 18.8787 24.9996 17.6865C25.0066 16.5005 24.9054 15.3162 24.6971 14.1485ZM16.1638 19.8772V15.5142L20.0042 17.6865L16.1638 19.868V19.8772Z" fill="white"/>
</svg>
