<svg width="36" height="36" viewBox="0 0 36 36" fill="none" xmlns="http://www.w3.org/2000/svg">
<circle cx="18" cy="18" r="18" fill="#0D6032"/>
<path fill-rule="evenodd" clip-rule="evenodd" d="M10.8937 17.3049C14.3833 15.8937 16.7103 14.9633 17.8746 14.5138C21.199 13.2304 21.8897 13.0074 22.34 13.0001C22.439 12.9985 22.6604 13.0212 22.8038 13.1293C22.9249 13.2205 22.9583 13.3437 22.9742 13.4302C22.9902 13.5166 23.01 13.7136 22.9942 13.8676C22.8141 15.6245 22.0346 19.8881 21.638 21.8559C21.4702 22.6885 21.1398 22.9677 20.8199 22.995C20.1248 23.0544 19.5969 22.5686 18.9236 22.159C17.8701 21.5179 17.2749 21.1189 16.2522 20.4933C15.0703 19.7704 15.8365 19.3731 16.51 18.7237C16.6863 18.5538 19.7492 15.9679 19.8084 15.7333C19.8159 15.704 19.8227 15.5946 19.7527 15.5369C19.6828 15.4792 19.5795 15.4989 19.5049 15.5146C19.3992 15.5369 17.7162 16.5695 14.4557 18.6124C13.9779 18.9169 13.5452 19.0652 13.1575 19.0574C12.7301 19.0489 11.9079 18.8331 11.2967 18.6487C10.5471 18.4225 9.95127 18.3029 10.0031 17.9188C10.0302 17.7187 10.327 17.5141 10.8937 17.3049Z" fill="white"/>
<mask id="mask0_1_688" style="mask-type:alpha" maskUnits="userSpaceOnUse" x="10" y="10" width="16" height="16">
<path d="M10 18C10 13.5817 13.5817 10 18 10C22.4183 10 26 13.5817 26 18C26 22.4183 22.4183 26 18 26C13.5817 26 10 22.4183 10 18Z" fill="black"/>
</mask>
<g mask="url(#mask0_1_688)">
<path d="M10 18C10 13.5817 13.5817 10 18 10C22.4183 10 26 13.5817 26 18C26 22.4183 22.4183 26 18 26C13.5817 26 10 22.4183 10 18Z" fill="white"/>
<path fill-rule="evenodd" clip-rule="evenodd" d="M17.7603 10C17.72 13.2431 17.4986 15.0659 16.2822 16.2822C15.0659 17.4986 13.2431 17.72 10 17.7603V18.2397C13.2431 18.28 15.0659 18.5014 16.2822 19.7178C17.4986 20.9341 17.72 22.7569 17.7603 26H18.2397C18.28 22.7569 18.5014 20.9341 19.7178 19.7178C20.9341 18.5014 22.7569 18.28 26 18.2397V17.7603C22.7569 17.72 20.9341 17.4986 19.7178 16.2822C18.5014 15.0659 18.28 13.2431 18.2397 10H17.7603Z" fill="#8CAE49"/>
</g>
</svg>
