<svg width="348" height="139" viewBox="0 0 348 139" fill="none" xmlns="http://www.w3.org/2000/svg">
<path d="M19.5326 121.081C15.8337 116.495 9.11831 115.777 4.53325 119.476C-0.0518136 123.175 -0.770182 129.89 2.92869 134.475C6.62756 139.06 13.343 139.779 17.928 136.08C22.5131 132.381 23.2315 125.666 19.5326 121.081ZM347.342 33.2781C345.152 31.6712 342.943 30.1297 340.717 28.6523L338.505 31.9852C340.679 33.4277 342.836 34.9332 344.976 36.5031L347.342 33.2781ZM326.93 20.4256C322.143 17.8752 317.291 15.5935 312.383 13.5687L310.857 17.2664C315.645 19.2416 320.379 21.4674 325.049 23.9557L326.93 20.4256ZM297.231 8.17128C292.079 6.61467 286.879 5.31694 281.643 4.26481L280.855 8.18642C285.97 9.21414 291.046 10.4812 296.074 12.0003L297.231 8.17128ZM265.764 1.82425C260.446 1.25003 255.101 0.909753 249.742 0.789875L249.653 4.78887C254.902 4.9063 260.133 5.23951 265.335 5.80114L265.764 1.82425ZM233.697 1.07408C228.376 1.37645 223.051 1.88129 217.732 2.57552L218.25 6.54187C223.476 5.85978 228.704 5.36428 233.924 5.06764L233.697 1.07408ZM201.927 5.18849C196.709 6.23001 191.505 7.44283 186.327 8.81452L187.351 12.6812C192.452 11.3298 197.575 10.1359 202.71 9.11113L201.927 5.18849ZM170.977 13.3611C165.919 15.016 160.896 16.8141 155.915 18.7434L157.36 22.4734C162.276 20.5689 167.233 18.7948 172.221 17.1627L170.977 13.3611ZM141.153 24.8947C136.285 27.0661 131.468 29.3563 126.712 31.7535L128.513 35.3254C133.214 32.9559 137.973 30.6928 142.782 28.5477L141.153 24.8947ZM112.607 39.2717C107.947 41.8915 103.358 44.6082 98.8495 47.4101L100.961 50.8075C105.42 48.036 109.959 45.3491 114.567 42.7584L112.607 39.2717ZM85.4655 56.1332C81.037 59.1571 76.7018 62.2574 72.4702 65.4215L74.8655 68.625C79.0515 65.495 83.3401 62.4281 87.7211 59.4366L85.4655 56.1332ZM59.872 75.2756C55.7009 78.6882 51.6525 82.1561 47.7383 85.6654L50.4084 88.6437C54.2773 85.1751 58.2799 81.7463 62.4049 78.3715L59.872 75.2756ZM36.0873 96.6202C32.2183 100.439 28.5148 104.289 24.9908 108.153L27.9462 110.849C31.4216 107.038 35.0765 103.238 38.8973 99.4669L36.0873 96.6202ZM14.553 120.285C12.8562 122.383 11.2161 124.479 9.63484 126.572L12.8265 128.984C14.3802 126.927 15.9931 124.865 17.6629 122.801L14.553 120.285Z" fill="#0D6032"/>
</svg>
