<svg width="147" height="146" viewBox="0 0 147 146" fill="none" xmlns="http://www.w3.org/2000/svg">
<g opacity="0.6">
<g opacity="0.6">
<path d="M145.252 60.7179L82.4719 31.3263L55.4007 1.67678C54.4983 0.774406 53.0803 0.774406 52.1779 1.67678L27.9427 29.7793L21.7549 36.9984L1.2581 60.7179" stroke="white" stroke-width="2" stroke-miterlimit="10" stroke-linecap="round" stroke-linejoin="round"/>
<path d="M4.86732 134.713H141.384C143.575 134.713 145.251 133.037 145.251 130.846V105.579C145.251 103.388 143.575 101.712 141.384 101.712H4.86732C2.67584 101.712 1 103.388 1 105.579L1 130.846C1 133.037 2.67584 134.713 4.86732 134.713Z" stroke="white" stroke-width="2" stroke-miterlimit="10" stroke-linecap="round" stroke-linejoin="round"/>
<path d="M1.25778 141.286C2.80471 143.219 5.51184 144.38 8.47679 144.38C11.4417 144.38 14.1489 143.09 15.6958 141.286" stroke="white" stroke-width="2" stroke-miterlimit="10" stroke-linecap="round" stroke-linejoin="round"/>
<path d="M15.5669 141.287C17.1138 143.22 19.821 144.38 22.7859 144.38C25.7509 144.38 28.458 143.091 30.0049 141.287" stroke="white" stroke-width="2" stroke-miterlimit="10" stroke-linecap="round" stroke-linejoin="round"/>
<path d="M30.0049 141.286C31.5519 143.219 34.259 144.38 37.2239 144.38C40.1889 144.38 42.896 143.09 44.443 141.286" stroke="white" stroke-width="2" stroke-miterlimit="10" stroke-linecap="round" stroke-linejoin="round"/>
<path d="M44.4428 141.287C45.9898 143.22 48.6969 144.38 51.6618 144.38C54.6268 144.38 57.3339 143.091 58.8808 141.287" stroke="white" stroke-width="2" stroke-miterlimit="10" stroke-linecap="round" stroke-linejoin="round"/>
<path d="M58.881 141.287C60.4279 143.22 63.1351 144.38 66.1 144.38C69.065 144.38 71.7721 143.091 73.319 141.287" stroke="white" stroke-width="2" stroke-miterlimit="10" stroke-linecap="round" stroke-linejoin="round"/>
<path d="M73.319 141.287C74.866 143.22 77.5731 144.38 80.538 144.38C83.503 144.38 86.2101 143.091 87.7571 141.287" stroke="white" stroke-width="2" stroke-miterlimit="10" stroke-linecap="round" stroke-linejoin="round"/>
<path d="M87.628 141.287C89.1749 143.22 91.8821 144.38 94.847 144.38C97.812 144.38 100.519 143.091 102.066 141.287" stroke="white" stroke-width="2" stroke-miterlimit="10" stroke-linecap="round" stroke-linejoin="round"/>
<path d="M102.066 141.287C103.613 143.22 106.32 144.38 109.285 144.38C112.25 144.38 114.957 143.091 116.504 141.287" stroke="white" stroke-width="2" stroke-miterlimit="10" stroke-linecap="round" stroke-linejoin="round"/>
<path d="M116.504 141.287C118.051 143.22 120.758 144.38 123.723 144.38C126.688 144.38 129.395 143.091 130.942 141.287" stroke="white" stroke-width="2" stroke-miterlimit="10" stroke-linecap="round" stroke-linejoin="round"/>
<path d="M130.942 141.287C132.489 143.22 135.196 144.38 138.161 144.38C141.126 144.38 143.833 143.091 145.38 141.287" stroke="white" stroke-width="2" stroke-miterlimit="10" stroke-linecap="round" stroke-linejoin="round"/>
<path d="M141.255 130.717V105.708" stroke="white" stroke-width="2" stroke-miterlimit="10" stroke-linecap="round" stroke-linejoin="round"/>
<path d="M140.224 130.717L124.368 118.212" stroke="white" stroke-width="2" stroke-miterlimit="10" stroke-linecap="round" stroke-linejoin="round"/>
<path d="M108.641 105.708L121.403 115.891" stroke="white" stroke-width="2" stroke-miterlimit="10" stroke-linecap="round" stroke-linejoin="round"/>
<path d="M121.403 120.533L134.294 130.717" stroke="white" stroke-width="2" stroke-miterlimit="10" stroke-linecap="round" stroke-linejoin="round"/>
<path d="M118.438 118.212L102.711 105.708" stroke="white" stroke-width="2" stroke-miterlimit="10" stroke-linecap="round" stroke-linejoin="round"/>
<path d="M108.641 130.716L121.403 120.532L124.368 118.212L140.224 105.708" stroke="white" stroke-width="2" stroke-miterlimit="10" stroke-linecap="round" stroke-linejoin="round"/>
<path d="M102.711 130.716L118.438 118.212L121.403 115.891L134.294 105.708" stroke="white" stroke-width="2" stroke-miterlimit="10" stroke-linecap="round" stroke-linejoin="round"/>
<path d="M60.299 105.708L73.0612 115.891L76.0261 118.212L91.8822 130.716" stroke="white" stroke-width="2" stroke-miterlimit="10" stroke-linecap="round" stroke-linejoin="round"/>
<path d="M54.3691 105.708L70.0962 118.212L73.0612 120.532L85.9523 130.716" stroke="white" stroke-width="2" stroke-miterlimit="10" stroke-linecap="round" stroke-linejoin="round"/>
<path d="M91.8822 105.708L76.0262 118.212" stroke="white" stroke-width="2" stroke-miterlimit="10" stroke-linecap="round" stroke-linejoin="round"/>
<path d="M73.0612 120.533L60.299 130.717" stroke="white" stroke-width="2" stroke-miterlimit="10" stroke-linecap="round" stroke-linejoin="round"/>
<path d="M85.9523 105.708L73.0612 115.891" stroke="white" stroke-width="2" stroke-miterlimit="10" stroke-linecap="round" stroke-linejoin="round"/>
<path d="M70.0962 118.212L54.3691 130.717" stroke="white" stroke-width="2" stroke-miterlimit="10" stroke-linecap="round" stroke-linejoin="round"/>
<path d="M43.5408 130.717L27.6848 118.212" stroke="white" stroke-width="2" stroke-miterlimit="10" stroke-linecap="round" stroke-linejoin="round"/>
<path d="M11.9575 105.708L24.7196 115.891" stroke="white" stroke-width="2" stroke-miterlimit="10" stroke-linecap="round" stroke-linejoin="round"/>
<path d="M24.7197 120.533L37.6108 130.717" stroke="white" stroke-width="2" stroke-miterlimit="10" stroke-linecap="round" stroke-linejoin="round"/>
<path d="M21.7547 118.212L6.02757 105.708" stroke="white" stroke-width="2" stroke-miterlimit="10" stroke-linecap="round" stroke-linejoin="round"/>
<path d="M11.9575 130.716L24.7196 120.532L27.6846 118.212L43.5406 105.708" stroke="white" stroke-width="2" stroke-miterlimit="10" stroke-linecap="round" stroke-linejoin="round"/>
<path d="M6.02757 130.716L21.7547 118.212L24.7196 115.891L37.6107 105.708" stroke="white" stroke-width="2" stroke-miterlimit="10" stroke-linecap="round" stroke-linejoin="round"/>
<path d="M44.9586 101.712V79.024C44.9586 77.2193 46.3766 75.6724 48.3103 75.6724H59.1388C60.9435 75.6724 62.4905 77.0904 62.4905 79.024V101.712" stroke="white" stroke-width="2" stroke-miterlimit="10" stroke-linecap="round" stroke-linejoin="round"/>
<path d="M53.7245 49.5035C58.4234 49.5035 62.2326 45.6943 62.2326 40.9954C62.2326 36.2965 58.4234 32.4873 53.7245 32.4873C49.0256 32.4873 45.2164 36.2965 45.2164 40.9954C45.2164 45.6943 49.0256 49.5035 53.7245 49.5035Z" stroke="white" stroke-width="2" stroke-miterlimit="10" stroke-linecap="round" stroke-linejoin="round"/>
<path d="M53.7245 46.4096C56.7147 46.4096 59.1387 43.9855 59.1387 40.9953C59.1387 38.0051 56.7147 35.5811 53.7245 35.5811C50.7343 35.5811 48.3102 38.0051 48.3102 40.9953C48.3102 43.9855 50.7343 46.4096 53.7245 46.4096Z" stroke="white" stroke-width="2" stroke-miterlimit="10" stroke-linecap="round" stroke-linejoin="round"/>
<path d="M1.2578 60.7188C1.2578 63.0391 3.06255 64.8439 5.38294 64.8439H141.255C143.446 64.8439 145.122 63.1681 145.122 60.9766V60.7188" stroke="white" stroke-width="2" stroke-miterlimit="10" stroke-linecap="round" stroke-linejoin="round"/>
<path d="M19.6921 74.1243C22.2703 74.1243 23.6883 72.0618 23.6883 69.4836C23.6883 66.9053 22.2703 64.9717 19.6921 64.9717" stroke="white" stroke-width="2" stroke-miterlimit="10" stroke-linecap="round" stroke-linejoin="round"/>
<path d="M14.7935 64.9717C12.2153 64.9717 10.9262 67.0343 10.9262 69.6125C10.9262 72.1907 12.3442 74.2533 14.7935 74.2533" stroke="white" stroke-width="2" stroke-miterlimit="10" stroke-linecap="round" stroke-linejoin="round"/>
<path d="M19.6921 83.2777C22.2703 83.2777 23.6883 81.2151 23.6883 78.6369C23.6883 76.0587 22.1414 73.9961 19.6921 73.9961" stroke="white" stroke-width="2" stroke-miterlimit="10" stroke-linecap="round" stroke-linejoin="round"/>
<path d="M14.7935 74.1255C12.2153 74.1255 10.9262 76.1881 10.9262 78.7663C10.9262 81.3445 12.3442 83.4071 14.7935 83.4071" stroke="white" stroke-width="2" stroke-miterlimit="10" stroke-linecap="round" stroke-linejoin="round"/>
<path d="M19.692 92.5594C22.2702 92.5594 23.6882 90.4968 23.6882 87.9186C23.6882 85.3404 22.1413 83.2778 19.692 83.2778" stroke="white" stroke-width="2" stroke-miterlimit="10" stroke-linecap="round" stroke-linejoin="round"/>
<path d="M14.7935 83.2778C12.2153 83.2778 10.9262 85.3404 10.9262 87.9186C10.9262 90.4968 12.3442 92.5594 14.7935 92.5594" stroke="white" stroke-width="2" stroke-miterlimit="10" stroke-linecap="round" stroke-linejoin="round"/>
<path d="M19.6921 101.712C22.2703 101.712 23.6883 99.6492 23.6883 97.071C23.6883 94.4927 22.1414 92.4302 19.6921 92.4302" stroke="white" stroke-width="2" stroke-miterlimit="10" stroke-linecap="round" stroke-linejoin="round"/>
<path d="M14.7935 92.5586C12.2153 92.5586 10.9262 94.6212 10.9262 97.1994C10.9262 99.7776 12.3442 101.84 14.7935 101.84" stroke="white" stroke-width="2" stroke-miterlimit="10" stroke-linecap="round" stroke-linejoin="round"/>
<path d="M87.757 74.1253C85.1788 74.1253 83.7608 72.0628 83.7608 69.4845C83.7608 66.9063 85.3077 64.8438 87.757 64.8438" stroke="white" stroke-width="2" stroke-miterlimit="10" stroke-linecap="round" stroke-linejoin="round"/>
<path d="M92.5267 64.9717C95.105 64.9717 96.3941 67.0343 96.3941 69.6125C96.3941 72.1907 94.976 74.2533 92.5267 74.2533" stroke="white" stroke-width="2" stroke-miterlimit="10" stroke-linecap="round" stroke-linejoin="round"/>
<path d="M87.7569 83.2777C85.1787 83.2777 83.7607 81.2151 83.7607 78.6369C83.7607 76.0587 85.3076 73.9961 87.7569 73.9961" stroke="white" stroke-width="2" stroke-miterlimit="10" stroke-linecap="round" stroke-linejoin="round"/>
<path d="M92.5269 74.1255C95.1051 74.1255 96.3942 76.1881 96.3942 78.7663C96.3942 81.3445 94.9762 83.4071 92.5269 83.4071" stroke="white" stroke-width="2" stroke-miterlimit="10" stroke-linecap="round" stroke-linejoin="round"/>
<path d="M87.757 92.5594C85.1788 92.5594 83.7608 90.4968 83.7608 87.9186C83.7608 85.3404 85.3077 83.2778 87.757 83.2778" stroke="white" stroke-width="2" stroke-miterlimit="10" stroke-linecap="round" stroke-linejoin="round"/>
<path d="M92.5269 83.2778C95.1051 83.2778 96.3942 85.3404 96.3942 87.9186C96.3942 90.4968 94.9762 92.5594 92.5269 92.5594" stroke="white" stroke-width="2" stroke-miterlimit="10" stroke-linecap="round" stroke-linejoin="round"/>
<path d="M87.757 101.712C85.1788 101.712 83.7608 99.6492 83.7608 97.071C83.7608 94.4927 85.3077 92.4302 87.757 92.4302" stroke="white" stroke-width="2" stroke-miterlimit="10" stroke-linecap="round" stroke-linejoin="round"/>
<path d="M92.5267 92.5586C95.105 92.5586 96.3941 94.6212 96.3941 97.1994C96.3941 99.7776 94.976 101.84 92.5267 101.84" stroke="white" stroke-width="2" stroke-miterlimit="10" stroke-linecap="round" stroke-linejoin="round"/>
<path d="M80.7956 69.4839H26.5241" stroke="white" stroke-width="2" stroke-miterlimit="10" stroke-linecap="round" stroke-linejoin="round"/>
<path d="M116.762 53.8853H15.0512" stroke="white" stroke-width="2" stroke-miterlimit="10" stroke-linecap="round" stroke-linejoin="round"/>
<path d="M43.2828 44.7334H22.9148" stroke="white" stroke-width="2" stroke-miterlimit="10" stroke-linecap="round" stroke-linejoin="round"/>
<path d="M95.4916 44.7334H64.1663" stroke="white" stroke-width="2" stroke-miterlimit="10" stroke-linecap="round" stroke-linejoin="round"/>
<path d="M43.7985 36.0962H30.5207" stroke="white" stroke-width="2" stroke-miterlimit="10" stroke-linecap="round" stroke-linejoin="round"/>
<path d="M78.2178 36.0962H63.5219" stroke="white" stroke-width="2" stroke-miterlimit="10" stroke-linecap="round" stroke-linejoin="round"/>
<path d="M69.3227 26.4287H38.8998" stroke="white" stroke-width="2" stroke-miterlimit="10" stroke-linecap="round" stroke-linejoin="round"/>
<path d="M60.9435 17.1455H46.7633" stroke="white" stroke-width="2" stroke-miterlimit="10" stroke-linecap="round" stroke-linejoin="round"/>
<path d="M42.1223 78.7656H26.5241" stroke="white" stroke-width="2" stroke-miterlimit="10" stroke-linecap="round" stroke-linejoin="round"/>
<path d="M80.7958 78.7656H65.1976" stroke="white" stroke-width="2" stroke-miterlimit="10" stroke-linecap="round" stroke-linejoin="round"/>
<path d="M42.1225 87.9194H26.5243" stroke="white" stroke-width="2" stroke-miterlimit="10" stroke-linecap="round" stroke-linejoin="round"/>
<path d="M80.7958 87.918H65.1976" stroke="white" stroke-width="2" stroke-miterlimit="10" stroke-linecap="round" stroke-linejoin="round"/>
<path d="M42.1226 97.0718H26.5244" stroke="white" stroke-width="2" stroke-miterlimit="10" stroke-linecap="round" stroke-linejoin="round"/>
<path d="M80.7958 97.0703H65.1976" stroke="white" stroke-width="2" stroke-miterlimit="10" stroke-linecap="round" stroke-linejoin="round"/>
<path d="M138.161 64.8438V101.712" stroke="white" stroke-width="2" stroke-miterlimit="10" stroke-linecap="round" stroke-linejoin="round"/>
<path d="M130.942 64.8438V101.712" stroke="white" stroke-width="2" stroke-miterlimit="10" stroke-linecap="round" stroke-linejoin="round"/>
<path d="M18.6608 40.4789V16.7593H27.9423V29.7793" stroke="white" stroke-width="2" stroke-miterlimit="10" stroke-linecap="round" stroke-linejoin="round"/>
<path d="M8.47691 58.2704L52.0488 7.86624C52.8222 6.83495 54.3692 6.83495 55.2715 7.86624L80.9248 36.2266L131.329 57.8836C132.876 58.5282 132.36 60.8486 130.684 60.8486H9.5082C8.348 60.7197 7.70344 59.1727 8.47691 58.2704Z" stroke="white" stroke-width="2" stroke-miterlimit="10" stroke-linecap="round" stroke-linejoin="round"/>
<path d="M50.8886 130.716V105.708" stroke="white" stroke-width="2" stroke-miterlimit="10" stroke-linecap="round" stroke-linejoin="round"/>
<path d="M46.8923 130.716V105.708" stroke="white" stroke-width="2" stroke-miterlimit="10" stroke-linecap="round" stroke-linejoin="round"/>
<path d="M99.6168 130.716V105.708" stroke="white" stroke-width="2" stroke-miterlimit="10" stroke-linecap="round" stroke-linejoin="round"/>
<path d="M95.7495 130.716V105.708" stroke="white" stroke-width="2" stroke-miterlimit="10" stroke-linecap="round" stroke-linejoin="round"/>
<path d="M4.99628 130.717V105.708" stroke="white" stroke-width="2" stroke-miterlimit="10" stroke-linecap="round" stroke-linejoin="round"/>
<path d="M1 105.708H145.251" stroke="white" stroke-width="2" stroke-miterlimit="10" stroke-linecap="round" stroke-linejoin="round"/>
<path d="M1 130.717H145.251" stroke="white" stroke-width="2" stroke-miterlimit="10" stroke-linecap="round" stroke-linejoin="round"/>
</g>
</g>
</svg>
