<svg width="40" height="40" viewBox="0 0 40 40" fill="none" xmlns="http://www.w3.org/2000/svg">
<rect width="40" height="40" rx="20" fill="#0D6032"/>
<path d="M21 18.9998V10.6665C21 10.4013 20.8947 10.1469 20.7071 9.9594C20.5196 9.77186 20.2652 9.6665 20 9.6665C19.7348 9.6665 19.4805 9.77186 19.2929 9.9594C19.1054 10.1469 19 10.4013 19 10.6665V18.9998H10.6667C10.4015 18.9998 10.1471 19.1052 9.95958 19.2927C9.77204 19.4803 9.66669 19.7346 9.66669 19.9998C9.66669 20.2651 9.77204 20.5194 9.95958 20.7069C10.1471 20.8945 10.4015 20.9998 10.6667 20.9998H19V29.3332C19.0035 29.5973 19.1099 29.8497 19.2967 30.0365C19.4835 30.2233 19.7359 30.3297 20 30.3332C20.2652 30.3332 20.5196 30.2278 20.7071 30.0403C20.8947 29.8527 21 29.5984 21 29.3332V20.9998H29.3334C29.5986 20.9998 29.8529 20.8945 30.0405 20.7069C30.228 20.5194 30.3334 20.2651 30.3334 19.9998C30.3299 19.7357 30.2234 19.4833 30.0366 19.2965C29.8498 19.1098 29.5975 19.0033 29.3334 18.9998H21Z" fill="white"/>
</svg>
