<svg width="87" height="78" viewBox="0 0 87 78" fill="none" xmlns="http://www.w3.org/2000/svg">
<path d="M19.6683 60.4239C15.9694 55.8389 9.25399 55.1205 4.66894 58.8194C0.0838912 62.5182 -0.634498 69.2337 3.06437 73.8187C6.76324 78.4038 13.4787 79.1222 18.0637 75.4233C22.6488 71.7244 23.3672 65.009 19.6683 60.4239ZM85.5218 0.451597C82.6059 1.16935 79.862 1.95084 77.2601 2.80904L78.5131 6.60774C81.0066 5.78529 83.6506 5.0316 86.4779 4.33566L85.5218 0.451597ZM61.5204 9.91026C56.6535 12.8303 52.2197 16.2877 47.8318 20.4126L50.5716 23.327C54.7875 19.3637 58.9957 16.0897 63.5783 13.3403L61.5204 9.91026ZM36.1575 32.8636C32.7997 36.797 29.2781 41.1562 25.4491 45.9883L28.5842 48.4725C32.4026 43.6537 35.889 39.339 39.1998 35.4606L36.1575 32.8636ZM15.0215 59.25C13.3451 61.3843 11.6066 63.5934 9.79764 65.8807L12.935 68.362C14.7477 66.07 16.4892 63.8571 18.1672 61.7208L15.0215 59.25Z" fill="#0D6032"/>
</svg>
