<svg width="20" height="20" viewBox="0 0 20 20" fill="none" xmlns="http://www.w3.org/2000/svg">
<path d="M10 1.875C8.39303 1.875 6.82214 2.35152 5.486 3.24431C4.14985 4.1371 3.10844 5.40605 2.49348 6.8907C1.87852 8.37535 1.71762 10.009 2.03112 11.5851C2.34463 13.1612 3.11846 14.6089 4.25476 15.7452C5.39106 16.8815 6.8388 17.6554 8.41489 17.9689C9.99099 18.2824 11.6247 18.1215 13.1093 17.5065C14.594 16.8916 15.8629 15.8502 16.7557 14.514C17.6485 13.1779 18.125 11.607 18.125 10C18.1228 7.84579 17.2661 5.78045 15.7428 4.25719C14.2196 2.73394 12.1542 1.87721 10 1.875ZM15 14.725C14.4189 13.9473 13.6643 13.3158 12.7963 12.8809C11.9284 12.4459 10.9709 12.2194 10 12.2194C9.02914 12.2194 8.07165 12.4459 7.20367 12.8809C6.33569 13.3158 5.58114 13.9473 5 14.725C4.07837 13.7484 3.4629 12.5233 3.22958 11.2009C2.99626 9.87855 3.1553 8.51679 3.68707 7.28377C4.21884 6.05075 5.10005 5.00044 6.22192 4.26251C7.34379 3.52459 8.6572 3.13135 10 3.13135C11.3428 3.13135 12.6562 3.52459 13.7781 4.26251C14.9 5.00044 15.7812 6.05075 16.3129 7.28377C16.8447 8.51679 17.0037 9.87855 16.7704 11.2009C16.5371 12.5233 15.9216 13.7484 15 14.725Z" fill="#0D6032"/>
<path d="M9.99999 5.15833C9.53685 5.15833 9.08412 5.29567 8.69903 5.55298C8.31395 5.81028 8.01381 6.176 7.83657 6.60388C7.65934 7.03177 7.61297 7.5026 7.70332 7.95684C7.79367 8.41107 8.0167 8.82832 8.34418 9.15581C8.67167 9.4833 9.08892 9.70632 9.54316 9.79667C9.9974 9.88703 10.4682 9.84065 10.8961 9.66342C11.324 9.48618 11.6897 9.18605 11.947 8.80096C12.2043 8.41588 12.3417 7.96314 12.3417 7.5C12.3428 7.19218 12.2829 6.88718 12.1657 6.60258C12.0484 6.31798 11.8759 6.0594 11.6583 5.84174C11.4406 5.62407 11.182 5.45163 10.8974 5.33434C10.6128 5.21705 10.3078 5.15723 9.99999 5.15833Z" fill="#0D6032"/>
</svg>
